<svg xmlns="http://www.w3.org/2000/svg" xmlns:xlink="http://www.w3.org/1999/xlink" viewBox="0 0 269.94 149.62"><defs><style>.cls-1{fill:#fff;}.cls-2{fill:#231f20;}.cls-3{isolation:isolate;}.cls-4{fill:#fbb040;}.cls-5{fill:#f0b41d;}.cls-6{fill:url(#linear-gradient);}.cls-7{fill:url(#linear-gradient-2);}.cls-8{fill:url(#linear-gradient-3);}.cls-9{fill:#00562d;}.cls-12,.cls-13,.cls-14,.cls-15,.cls-16,.cls-17,.cls-9{opacity:0.5;}.cls-10{mask:url(#mask);}.cls-11{fill:#236399;}.cls-12{fill:#4b7b39;}.cls-12,.cls-13,.cls-14,.cls-15,.cls-16,.cls-17{mix-blend-mode:multiply;}.cls-13{fill:#8c6026;}.cls-14{fill:#a24f24;}.cls-15{fill:#005b33;}.cls-16{fill:#084e32;}.cls-17{fill:#0c8643;}.cls-18{fill:url(#linear-gradient-4);}.cls-19{fill:url(#linear-gradient-5);}.cls-20{fill:url(#linear-gradient-6);}.cls-21{fill:url(#linear-gradient-7);}.cls-22{fill:url(#linear-gradient-8);}.cls-23{fill:url(#linear-gradient-9);}.cls-24{fill:url(#linear-gradient-10);}.cls-25{fill:url(#linear-gradient-11);}.cls-26{fill:url(#linear-gradient-12);}.cls-27{fill:url(#linear-gradient-13);}.cls-28{filter:url(#luminosity-noclip);}</style><linearGradient id="linear-gradient" x1="101.63" y1="54.06" x2="168.96" y2="54.06" gradientUnits="userSpaceOnUse"><stop offset="0" stop-color="#3276bb"/><stop offset="1" stop-color="#00aeef"/></linearGradient><linearGradient id="linear-gradient-2" x1="103.72" y1="54.06" x2="171.05" y2="54.06" gradientUnits="userSpaceOnUse"><stop offset="0" stop-color="#fcc648"/><stop offset="1" stop-color="#f15a29"/></linearGradient><linearGradient id="linear-gradient-3" x1="84.74" y1="54.47" x2="193.62" y2="54.47" gradientUnits="userSpaceOnUse"><stop offset="0" stop-color="#009444"/><stop offset="1" stop-color="#d7df23"/></linearGradient><filter id="luminosity-noclip" x="84.74" y="6" width="108.88" height="96.13" filterUnits="userSpaceOnUse" color-interpolation-filters="sRGB"><feFlood flood-color="#fff" result="bg"/><feBlend in="SourceGraphic" in2="bg"/></filter><mask id="mask" x="79.68" y="0" width="108.88" height="96.13" maskUnits="userSpaceOnUse"><g class="cls-28"><g transform="translate(-5.06 -6)"><path class="cls-1" d="M169.16,35a68.28,68.28,0,0,0,1.54-8.13c2.65-21.87-10-26.54-26.62-14a72.87,72.87,0,0,0-7.74,6.85,72.74,72.74,0,0,0-7.75-6.85C112,.32,99.33,5,102,26.86a72.05,72.05,0,0,0,2.37,11.25c-1.55.55-3.05,1.13-4.46,1.76-19,8.46-21.09,21.76-.69,30.08a66.3,66.3,0,0,0,6.61,2.23c-6.12,23.29,1.42,36.79,19.68,26.4a60.41,60.41,0,0,0,10.85-8.14,60.32,60.32,0,0,0,10.85,8.14C165.44,109,173,95.48,166.87,72.2a66,66,0,0,0,17-6.89C202.11,54.23,193.4,40.81,169.16,35Zm-61.77-6.9c-2.62-19.76,6.94-23,22-11.78a61.48,61.48,0,0,1,5.6,4.79c-.91,1-1.83,1.95-2.73,3l.23,0a4.66,4.66,0,0,1,2.57-.34c.44-.46.88-.89,1.31-1.33.44.44.88.88,1.32,1.34a5.17,5.17,0,0,1,2.1-.48h0c-.68-.76-1.37-1.48-2.06-2.2a61.49,61.49,0,0,1,5.61-4.79c15-11.19,24.57-8,22,11.78C165,30,164.63,32,164.15,34c-2.42-.43-4.89-.82-7.42-1.09a6.69,6.69,0,0,1,.79,2l0,0c2.1.3,4.13.67,6.12,1.1a88.16,88.16,0,0,1-2.78,8.53v0a115.58,115.58,0,0,1-14.15,25.93,118.08,118.08,0,0,1-20.64.22,117.87,117.87,0,0,1-14.33-26.22c-.77-2-1.43-4-2-6,1.05-.34,2.12-.66,3.23-1a6.79,6.79,0,0,1,1.19-1.68,5.34,5.34,0,0,0,.45-.51l.13-.19c-1.92.43-3.76.92-5.57,1.44A63,63,0,0,1,107.4,28.09Zm55.84,39.45c-1.87.51-3.8,1-5.78,1.36v0c-1.27.26-2.57.47-3.87.68a132.35,132.35,0,0,0,7.29-12.71,8.52,8.52,0,0,1-.26,1.71,4.81,4.81,0,0,1-.08,1.13C161.57,62.35,162.48,65,163.24,67.53ZM136.92,82.16l-.59.56-.32-.3h0c-2-2-3.94-4.19-5.83-6.5,4.11.18,8.27.17,12.41,0-1.83,2.22-3.7,4.34-5.62,6.28ZM112.76,58.73l.14.28,0,0c2,3.75,4.15,7.43,6.47,11-1.25-.18-2.5-.36-3.72-.59q-3.26-.61-6.31-1.44a89.83,89.83,0,0,1,3.32-9.39Zm-9.47-17.84c.55-.25,1.12-.48,1.69-.72A113,113,0,0,0,111.39,56s0,0,0,.05l.1.2.06.11a108.48,108.48,0,0,0-4.28,10.93c-1.5-.46-3-.95-4.36-1.5C84.37,58.49,86.21,48.58,103.29,40.89Zm21.87,50.69c-15.53,9-21.28.06-17.09-18.76a97.55,97.55,0,0,0,10.49,2.06l0,0,.66.08.39.06v0c1.17.15,2.35.28,3.54.4,1.53,2.1,3.1,4.14,4.72,6.08l0,0,.48.55c.25.3.5.61.75.9h0c1,1.21,2.11,2.36,3.18,3.49A50.48,50.48,0,0,1,125.16,91.58Zm22.37,0a50.5,50.5,0,0,1-7.13-5.15c1.29-1.36,2.57-2.76,3.82-4.23.09-.05.09-.08.09-.08l.33-.4.14-.17h0c1.65-2,3.26-4.05,4.82-6.19q2.21-.23,4.38-.54l0,0c3.64-.52,7.18-1.21,10.58-2C168.82,91.62,163.07,100.63,147.53,91.58Zm30.38-30a56.88,56.88,0,0,1-12.6,5.32,110.23,110.23,0,0,0-4.17-10.56l0,0v0a109.42,109.42,0,0,0,7.44-19.12C188.08,42.63,193.69,52.24,177.91,61.61Z"/><path class="cls-2" d="M169.16,35a68.28,68.28,0,0,0,1.54-8.13c2.65-21.87-10-26.54-26.62-14a72.87,72.87,0,0,0-7.74,6.85,72.74,72.74,0,0,0-7.75-6.85C112,.32,99.33,5,102,26.86a72.05,72.05,0,0,0,2.37,11.25c-1.55.55-3.05,1.13-4.46,1.76-19,8.46-21.09,21.76-.69,30.08a66.3,66.3,0,0,0,6.61,2.23c-6.12,23.29,1.42,36.79,19.68,26.4a60.41,60.41,0,0,0,10.85-8.14,60.32,60.32,0,0,0,10.85,8.14C165.44,109,173,95.48,166.87,72.2a66,66,0,0,0,17-6.89C202.11,54.23,193.4,40.81,169.16,35Zm-61.77-6.9c-2.62-19.76,6.94-23,22-11.78a61.48,61.48,0,0,1,5.6,4.79c-.91,1-1.83,1.95-2.73,3l.23,0a4.66,4.66,0,0,1,2.57-.34c.44-.46.88-.89,1.31-1.33.44.44.88.88,1.32,1.34a5.17,5.17,0,0,1,2.1-.48h0c-.68-.76-1.37-1.48-2.06-2.2a61.49,61.49,0,0,1,5.61-4.79c15-11.19,24.57-8,22,11.78C165,30,164.63,32,164.15,34c-2.42-.43-4.89-.82-7.42-1.09a6.69,6.69,0,0,1,.79,2l0,0c2.1.3,4.13.67,6.12,1.1a88.16,88.16,0,0,1-2.78,8.53v0a115.58,115.58,0,0,1-14.15,25.93,118.08,118.08,0,0,1-20.64.22,117.87,117.87,0,0,1-14.33-26.22c-.77-2-1.43-4-2-6,1.05-.34,2.12-.66,3.23-1a6.79,6.79,0,0,1,1.19-1.68,5.34,5.34,0,0,0,.45-.51l.13-.19c-1.92.43-3.76.92-5.57,1.44A63,63,0,0,1,107.4,28.09Zm55.84,39.45c-1.87.51-3.8,1-5.78,1.36v0c-1.27.26-2.57.47-3.87.68a132.35,132.35,0,0,0,7.29-12.71,8.52,8.52,0,0,1-.26,1.71,4.81,4.81,0,0,1-.08,1.13C161.57,62.35,162.48,65,163.24,67.53ZM136.92,82.16l-.59.56-.32-.3h0c-2-2-3.94-4.19-5.83-6.5,4.11.18,8.27.17,12.41,0-1.83,2.22-3.7,4.34-5.62,6.28ZM112.76,58.73l.14.28,0,0c2,3.75,4.15,7.43,6.47,11-1.25-.18-2.5-.36-3.72-.59q-3.26-.61-6.31-1.44a89.83,89.83,0,0,1,3.32-9.39Zm-9.47-17.84c.55-.25,1.12-.48,1.69-.72A113,113,0,0,0,111.39,56s0,0,0,.05l.1.2.06.11a108.48,108.48,0,0,0-4.28,10.93c-1.5-.46-3-.95-4.36-1.5C84.37,58.49,86.21,48.58,103.29,40.89Zm21.87,50.69c-15.53,9-21.28.06-17.09-18.76a97.55,97.55,0,0,0,10.49,2.06l0,0,.66.08.39.06v0c1.17.15,2.35.28,3.54.4,1.53,2.1,3.1,4.14,4.72,6.08l0,0,.48.55c.25.3.5.61.75.9h0c1,1.21,2.11,2.36,3.18,3.49A50.48,50.48,0,0,1,125.16,91.58Zm22.37,0a50.5,50.5,0,0,1-7.13-5.15c1.29-1.36,2.57-2.76,3.82-4.23.09-.05.09-.08.09-.08l.33-.4.14-.17h0c1.65-2,3.26-4.05,4.82-6.19q2.21-.23,4.38-.54l0,0c3.64-.52,7.18-1.21,10.58-2C168.82,91.62,163.07,100.63,147.53,91.58Zm30.38-30a56.88,56.88,0,0,1-12.6,5.32,110.23,110.23,0,0,0-4.17-10.56l0,0v0a109.42,109.42,0,0,0,7.44-19.12C188.08,42.63,193.69,52.24,177.91,61.61Z"/></g></g></mask><linearGradient id="linear-gradient-4" x1="215.49" y1="140.08" x2="237.75" y2="140.08" gradientUnits="userSpaceOnUse"><stop offset="0.2" stop-color="#fcc648"/><stop offset="1" stop-color="#f15a29"/></linearGradient><linearGradient id="linear-gradient-5" x1="231.88" y1="136.51" x2="255.2" y2="136.51" xlink:href="#linear-gradient-4"/><linearGradient id="linear-gradient-6" x1="240.16" y1="145.52" x2="269.94" y2="145.52" gradientUnits="userSpaceOnUse"><stop offset="0.45" stop-color="#fcc648"/><stop offset="1" stop-color="#f15a29"/></linearGradient><linearGradient id="linear-gradient-7" x1="248.61" y1="135.4" x2="269.94" y2="135.4" gradientUnits="userSpaceOnUse"><stop offset="0" stop-color="#f15a29"/><stop offset="0.69" stop-color="#fcc648"/></linearGradient><linearGradient id="linear-gradient-8" x1="242.96" y1="120.23" x2="264.29" y2="120.23" xlink:href="#linear-gradient-2"/><linearGradient id="linear-gradient-9" x1="-1935.16" y1="422.95" x2="-1912.9" y2="422.95" gradientTransform="translate(-1675.43 527.38) rotate(180)" gradientUnits="userSpaceOnUse"><stop offset="0" stop-color="#d7df23"/><stop offset="0.74" stop-color="#009444"/></linearGradient><linearGradient id="linear-gradient-10" x1="-1918.78" y1="419.39" x2="-1895.46" y2="419.39" gradientTransform="translate(-1675.43 527.38) rotate(180)" gradientUnits="userSpaceOnUse"><stop offset="0" stop-color="#d7df23"/><stop offset="0.67" stop-color="#009444"/></linearGradient><linearGradient id="linear-gradient-11" x1="-1910.49" y1="428.4" x2="-1880.71" y2="428.4" gradientTransform="translate(-1675.43 527.38) rotate(180)" gradientUnits="userSpaceOnUse"><stop offset="0" stop-color="#d7df23"/><stop offset="0.69" stop-color="#009444"/></linearGradient><linearGradient id="linear-gradient-12" x1="-1902.04" y1="418.28" x2="-1880.71" y2="418.28" gradientTransform="translate(-1675.43 527.38) rotate(180)" xlink:href="#linear-gradient-3"/><linearGradient id="linear-gradient-13" x1="-1907.69" y1="403.1" x2="-1886.36" y2="403.1" gradientTransform="translate(-1675.43 527.38) rotate(180)" gradientUnits="userSpaceOnUse"><stop offset="0" stop-color="#d7df23"/><stop offset="1" stop-color="#009444"/></linearGradient></defs><title>uber_conf_intro_2019</title><g class="cls-3"><g id="text"><path class="cls-4" d="M6.83,155H6.28v-3.8H5.06v-.48h3v.48H6.83Z" transform="translate(-5.06 -6)"/><path class="cls-4" d="M11.74,155h-.54v-2h-2v2H8.7v-4.28h.54v1.8h2v-1.8h.54Z" transform="translate(-5.06 -6)"/><path class="cls-4" d="M15.13,155H12.9v-4.28h2.22v.48H13.45v1.32H15V153H13.45v1.52h1.68Z" transform="translate(-5.06 -6)"/><path class="cls-4" d="M20.69,150.71v2.78a1.93,1.93,0,0,1-.1.62,1.37,1.37,0,0,1-.29.5,1.35,1.35,0,0,1-.49.33,1.83,1.83,0,0,1-.69.12,1.8,1.8,0,0,1-.66-.11,1.29,1.29,0,0,1-.48-.32,1.36,1.36,0,0,1-.29-.5,2,2,0,0,1-.1-.65v-2.76h.55v2.79a1.15,1.15,0,0,0,.25.79,1,1,0,0,0,.77.28,1.15,1.15,0,0,0,.45-.08.8.8,0,0,0,.31-.22.94.94,0,0,0,.18-.34,1.61,1.61,0,0,0,.06-.44v-2.79Z" transform="translate(-5.06 -6)"/><path class="cls-4" d="M21.82,155v-4.28h.54v3.8H24V155Z" transform="translate(-5.06 -6)"/><path class="cls-4" d="M25.65,155h-.55v-3.8H23.88v-.48h3v.48H25.65Z" transform="translate(-5.06 -6)"/><path class="cls-4" d="M28.73,155H27.18v-.3l.5-.12v-3.45l-.5-.12v-.3h1.55v.3l-.5.12v3.45l.5.12Z" transform="translate(-5.06 -6)"/><path class="cls-4" d="M31.32,155,30,151.25h0q0,.22,0,.43c0,.12,0,.25,0,.39s0,.26,0,.37V155h-.5v-4.28h.81l1.21,3.49h0l1.21-3.49h.81V155h-.54v-2.6q0-.15,0-.35t0-.37q0-.21,0-.42h0L31.77,155Z" transform="translate(-5.06 -6)"/><path class="cls-4" d="M37.28,155l-.47-1.33h-1.6L34.74,155h-.55l1.57-4.3h.5l1.58,4.3Zm-.64-1.81-.43-1.24,0-.13-.05-.16-.05-.18,0-.19,0,.19-.05.19-.05.16,0,.13-.42,1.24Z" transform="translate(-5.06 -6)"/><path class="cls-4" d="M39.31,155h-.55v-3.8H37.54v-.48h3v.48H39.31Z" transform="translate(-5.06 -6)"/><path class="cls-4" d="M43.4,155H41.18v-4.28H43.4v.48H41.72v1.32h1.57V153H41.72v1.52H43.4Z" transform="translate(-5.06 -6)"/><path class="cls-4" d="M47.64,151.14a1.35,1.35,0,0,0-.57.12,1.22,1.22,0,0,0-.44.34,1.6,1.6,0,0,0-.28.54,2.45,2.45,0,0,0-.1.72,2.82,2.82,0,0,0,.09.73,1.48,1.48,0,0,0,.26.54,1.11,1.11,0,0,0,.43.33,1.48,1.48,0,0,0,.6.11,2.25,2.25,0,0,0,.5-.05l.46-.12v.47l-.23.08-.24.05-.27,0h-.31a2,2,0,0,1-.83-.16,1.53,1.53,0,0,1-.58-.45,1.92,1.92,0,0,1-.34-.7,3.42,3.42,0,0,1-.11-.9,3,3,0,0,1,.13-.89,2,2,0,0,1,.38-.69,1.69,1.69,0,0,1,.61-.45,2.07,2.07,0,0,1,.84-.16,2.75,2.75,0,0,1,.6.06,2.06,2.06,0,0,1,.52.19l-.23.46a2.57,2.57,0,0,0-.4-.16A1.66,1.66,0,0,0,47.64,151.14Z" transform="translate(-5.06 -6)"/><path class="cls-4" d="M52.9,152.85a3.22,3.22,0,0,1-.12.9,2,2,0,0,1-.35.7,1.58,1.58,0,0,1-.58.45,1.91,1.91,0,0,1-.8.16,2,2,0,0,1-.83-.16,1.53,1.53,0,0,1-.58-.45,1.93,1.93,0,0,1-.34-.7,3.46,3.46,0,0,1-.11-.91,3.41,3.41,0,0,1,.11-.9,1.88,1.88,0,0,1,.34-.69,1.54,1.54,0,0,1,.58-.44,2,2,0,0,1,.83-.16,1.91,1.91,0,0,1,.8.16,1.58,1.58,0,0,1,.58.45,2,2,0,0,1,.35.69A3.24,3.24,0,0,1,52.9,152.85Zm-3.14,0a3.12,3.12,0,0,0,.08.72,1.56,1.56,0,0,0,.23.54,1,1,0,0,0,.4.34,1.46,1.46,0,0,0,1.15,0,1,1,0,0,0,.4-.34,1.52,1.52,0,0,0,.23-.54,3.6,3.6,0,0,0,0-1.45,1.53,1.53,0,0,0-.23-.54,1.05,1.05,0,0,0-.4-.34,1.3,1.3,0,0,0-.57-.12,1.32,1.32,0,0,0-.58.12,1.07,1.07,0,0,0-.4.34,1.54,1.54,0,0,0-.23.54A3.13,3.13,0,0,0,49.76,152.85Z" transform="translate(-5.06 -6)"/><path class="cls-4" d="M57.06,155h-.63l-2.11-3.54h0q0,.23,0,.45t0,.4q0,.21,0,.38V155h-.5v-4.28h.62l2.1,3.53h0q0-.22,0-.44c0-.06,0-.13,0-.19v-.2c0-.06,0-.13,0-.19s0-.12,0-.17v-2.34h.51Z" transform="translate(-5.06 -6)"/><path class="cls-4" d="M58.77,155h-.54v-4.28h2.22v.48H58.77v1.51h1.57v.48H58.77Z" transform="translate(-5.06 -6)"/><path class="cls-4" d="M63.4,155H61.17v-4.28H63.4v.48H61.72v1.32h1.57V153H61.72v1.52H63.4Z" transform="translate(-5.06 -6)"/><path class="cls-4" d="M64.89,153.23V155h-.54v-4.28h1a1.81,1.81,0,0,1,1.15.3,1.11,1.11,0,0,1,.37.91,1.26,1.26,0,0,1-.07.45,1.08,1.08,0,0,1-.19.33,1.13,1.13,0,0,1-.27.23,1.84,1.84,0,0,1-.31.15L67.23,155h-.64l-1-1.77Zm0-.46h.48a1.7,1.7,0,0,0,.45-.05.8.8,0,0,0,.3-.15.59.59,0,0,0,.17-.25,1,1,0,0,0,.05-.35.94.94,0,0,0-.06-.36.57.57,0,0,0-.18-.24.8.8,0,0,0-.31-.14,2.07,2.07,0,0,0-.44,0h-.47Z" transform="translate(-5.06 -6)"/><path class="cls-4" d="M70.1,155H67.88v-4.28H70.1v.48H68.42v1.32H70V153H68.42v1.52H70.1Z" transform="translate(-5.06 -6)"/><path class="cls-4" d="M74.25,155h-.63l-2.11-3.54h0q0,.23,0,.45t0,.4q0,.21,0,.38V155H71v-4.28h.62l2.1,3.53h0q0-.22,0-.44c0-.06,0-.13,0-.19v-.2c0-.06,0-.13,0-.19s0-.12,0-.17v-2.34h.51Z" transform="translate(-5.06 -6)"/><path class="cls-4" d="M77.16,151.14a1.35,1.35,0,0,0-.57.12,1.22,1.22,0,0,0-.44.34,1.6,1.6,0,0,0-.28.54,2.45,2.45,0,0,0-.1.72,2.82,2.82,0,0,0,.09.73,1.48,1.48,0,0,0,.26.54,1.11,1.11,0,0,0,.43.33,1.48,1.48,0,0,0,.6.11,2.25,2.25,0,0,0,.5-.05l.46-.12v.47l-.23.08-.24.05-.27,0h-.31a2,2,0,0,1-.83-.16,1.53,1.53,0,0,1-.58-.45,1.92,1.92,0,0,1-.34-.7,3.42,3.42,0,0,1-.11-.9,3,3,0,0,1,.13-.89,2,2,0,0,1,.38-.69,1.69,1.69,0,0,1,.61-.45,2.07,2.07,0,0,1,.84-.16,2.75,2.75,0,0,1,.6.06,2.06,2.06,0,0,1,.52.19l-.23.46a2.57,2.57,0,0,0-.4-.16A1.66,1.66,0,0,0,77.16,151.14Z" transform="translate(-5.06 -6)"/><path class="cls-4" d="M81.26,155H79v-4.28h2.22v.48H79.58v1.32h1.57V153H79.58v1.52h1.68Z" transform="translate(-5.06 -6)"/><path class="cls-4" d="M84.31,155h-.54v-4.28H86v.48H84.31v1.51h1.57v.48H84.31Z" transform="translate(-5.06 -6)"/><path class="cls-4" d="M90.21,152.85a3.22,3.22,0,0,1-.12.9,2,2,0,0,1-.35.7,1.58,1.58,0,0,1-.58.45,1.91,1.91,0,0,1-.8.16,2,2,0,0,1-.83-.16,1.53,1.53,0,0,1-.58-.45,1.93,1.93,0,0,1-.34-.7,3.46,3.46,0,0,1-.11-.91,3.41,3.41,0,0,1,.11-.9,1.88,1.88,0,0,1,.34-.69,1.54,1.54,0,0,1,.58-.44,2,2,0,0,1,.83-.16,1.91,1.91,0,0,1,.8.16,1.58,1.58,0,0,1,.58.45,2,2,0,0,1,.35.69A3.24,3.24,0,0,1,90.21,152.85Zm-3.14,0a3.12,3.12,0,0,0,.08.72,1.56,1.56,0,0,0,.23.54,1,1,0,0,0,.4.34,1.46,1.46,0,0,0,1.15,0,1,1,0,0,0,.4-.34,1.52,1.52,0,0,0,.23-.54,3.6,3.6,0,0,0,0-1.45,1.53,1.53,0,0,0-.23-.54,1.05,1.05,0,0,0-.4-.34,1.3,1.3,0,0,0-.57-.12,1.32,1.32,0,0,0-.58.12,1.07,1.07,0,0,0-.4.34,1.54,1.54,0,0,0-.23.54A3.13,3.13,0,0,0,87.07,152.85Z" transform="translate(-5.06 -6)"/><path class="cls-4" d="M91.71,153.23V155h-.54v-4.28h1a1.81,1.81,0,0,1,1.15.3,1.11,1.11,0,0,1,.37.91,1.26,1.26,0,0,1-.07.45,1.08,1.08,0,0,1-.19.33,1.13,1.13,0,0,1-.27.23,1.84,1.84,0,0,1-.31.15L94.05,155h-.64l-1-1.77Zm0-.46h.48a1.7,1.7,0,0,0,.45-.05.8.8,0,0,0,.3-.15.59.59,0,0,0,.17-.25,1,1,0,0,0,.05-.35.94.94,0,0,0-.06-.36.57.57,0,0,0-.18-.24.8.8,0,0,0-.31-.14,2.07,2.07,0,0,0-.44,0h-.47Z" transform="translate(-5.06 -6)"/><path class="cls-4" d="M98.52,153.85a1.23,1.23,0,0,1-.1.51,1,1,0,0,1-.29.38,1.28,1.28,0,0,1-.46.24,2.15,2.15,0,0,1-.61.08,3.5,3.5,0,0,1-.61-.05,1.66,1.66,0,0,1-.47-.15v-.52l.23.09.27.08.29.06.3,0a1.12,1.12,0,0,0,.69-.18.6.6,0,0,0,.22-.5.81.81,0,0,0,0-.28.55.55,0,0,0-.15-.22,1.32,1.32,0,0,0-.29-.19l-.45-.2a2.61,2.61,0,0,1-.45-.22,1.28,1.28,0,0,1-.32-.27,1,1,0,0,1-.18-.35,1.48,1.48,0,0,1-.06-.44,1.08,1.08,0,0,1,.09-.46,1,1,0,0,1,.26-.34,1.19,1.19,0,0,1,.41-.21,1.75,1.75,0,0,1,.52-.07,2.78,2.78,0,0,1,.63.07,2.58,2.58,0,0,1,.5.17l-.2.46a2.79,2.79,0,0,0-.43-.15,2,2,0,0,0-.5-.06.84.84,0,0,0-.55.17.56.56,0,0,0-.2.45.85.85,0,0,0,0,.29.56.56,0,0,0,.15.22,1.12,1.12,0,0,0,.27.19l.41.18a4,4,0,0,1,.47.22,1.4,1.4,0,0,1,.34.25.94.94,0,0,1,.2.33A1.25,1.25,0,0,1,98.52,153.85Z" transform="translate(-5.06 -6)"/><path class="cls-4" d="M102.88,152.85a3.22,3.22,0,0,1-.12.9,2,2,0,0,1-.35.7,1.58,1.58,0,0,1-.58.45,1.91,1.91,0,0,1-.8.16,2,2,0,0,1-.83-.16,1.53,1.53,0,0,1-.58-.45,1.93,1.93,0,0,1-.34-.7,3.46,3.46,0,0,1-.11-.91,3.41,3.41,0,0,1,.11-.9,1.88,1.88,0,0,1,.34-.69,1.54,1.54,0,0,1,.58-.44,2,2,0,0,1,.83-.16,1.91,1.91,0,0,1,.8.16,1.58,1.58,0,0,1,.58.45,2,2,0,0,1,.35.69A3.24,3.24,0,0,1,102.88,152.85Zm-3.14,0a3.12,3.12,0,0,0,.08.72,1.56,1.56,0,0,0,.23.54,1,1,0,0,0,.4.34,1.46,1.46,0,0,0,1.15,0,1,1,0,0,0,.4-.34,1.52,1.52,0,0,0,.23-.54,3.6,3.6,0,0,0,0-1.45,1.53,1.53,0,0,0-.23-.54,1.05,1.05,0,0,0-.4-.34,1.3,1.3,0,0,0-.57-.12,1.32,1.32,0,0,0-.58.12,1.07,1.07,0,0,0-.4.34,1.54,1.54,0,0,0-.23.54A3.13,3.13,0,0,0,99.74,152.85Z" transform="translate(-5.06 -6)"/><path class="cls-4" d="M104.38,155h-.54v-4.28h2.22v.48h-1.68v1.51h1.57v.48h-1.57Z" transform="translate(-5.06 -6)"/><path class="cls-4" d="M108,155h-.55v-3.8h-1.22v-.48h3v.48H108Z" transform="translate(-5.06 -6)"/><path class="cls-4" d="M111.68,150.72h.58l.67,2.51.09.33.08.32.06.29,0,.25,0-.24,0-.28.05-.29.06-.29.59-2.58h.58L113.48,155h-.55l-.74-2.75-.08-.31-.07-.3-.07-.31-.06.31-.07.3-.08.32L111,155h-.55l-1.13-4.28h.58l.65,2.6c0,.09,0,.18.06.28l.05.29,0,.28,0,.25,0-.25.05-.3.06-.32c0-.11,0-.21.07-.31Z" transform="translate(-5.06 -6)"/><path class="cls-4" d="M117.58,155l-.47-1.33h-1.6L115,155h-.55l1.57-4.3h.5l1.58,4.3Zm-.64-1.81-.43-1.24,0-.13-.05-.16-.05-.18,0-.19,0,.19-.05.19-.05.16,0,.13-.42,1.24Z" transform="translate(-5.06 -6)"/><path class="cls-4" d="M119.27,153.23V155h-.54v-4.28h1a1.81,1.81,0,0,1,1.15.3,1.11,1.11,0,0,1,.37.91,1.26,1.26,0,0,1-.07.45,1.08,1.08,0,0,1-.19.33,1.13,1.13,0,0,1-.27.23,1.84,1.84,0,0,1-.31.15l1.17,1.92H121l-1-1.77Zm0-.46h.48a1.7,1.7,0,0,0,.45-.05.8.8,0,0,0,.3-.15.59.59,0,0,0,.17-.25,1,1,0,0,0,.05-.35.94.94,0,0,0-.06-.36.57.57,0,0,0-.18-.24.8.8,0,0,0-.31-.14,2.07,2.07,0,0,0-.44,0h-.47Z" transform="translate(-5.06 -6)"/><path class="cls-4" d="M124.48,155h-2.22v-4.28h2.22v.48h-1.68v1.32h1.57V153h-1.57v1.52h1.68Z" transform="translate(-5.06 -6)"/><path class="cls-4" d="M130.14,152.82a2.91,2.91,0,0,1-.14,1,1.8,1.8,0,0,1-.41.68,1.68,1.68,0,0,1-.65.41,2.62,2.62,0,0,1-.88.14H127v-4.28h1.19a2.32,2.32,0,0,1,.81.13,1.63,1.63,0,0,1,.62.4,1.8,1.8,0,0,1,.39.66A2.71,2.71,0,0,1,130.14,152.82Zm-.58,0a2.5,2.5,0,0,0-.1-.74,1.33,1.33,0,0,0-.28-.51,1.12,1.12,0,0,0-.45-.3,1.78,1.78,0,0,0-.61-.1h-.59v3.35H128a1.5,1.5,0,0,0,1.17-.43A1.82,1.82,0,0,0,129.56,152.83Z" transform="translate(-5.06 -6)"/><path class="cls-4" d="M133.31,155h-2.22v-4.28h2.22v.48h-1.68v1.32h1.57V153h-1.57v1.52h1.68Z" transform="translate(-5.06 -6)"/><path class="cls-4" d="M136.5,150.72h.58L135.65,155h-.55l-1.43-4.28h.58l.86,2.72q.08.27.15.51l.11.46c0-.14.07-.3.11-.46s.1-.34.16-.53Z" transform="translate(-5.06 -6)"/><path class="cls-4" d="M139.89,155h-2.22v-4.28h2.22v.48h-1.68v1.32h1.57V153h-1.57v1.52h1.68Z" transform="translate(-5.06 -6)"/><path class="cls-4" d="M140.83,155v-4.28h.54v3.8h1.68V155Z" transform="translate(-5.06 -6)"/><path class="cls-4" d="M147.22,152.85a3.26,3.26,0,0,1-.12.9,2,2,0,0,1-.35.7,1.57,1.57,0,0,1-.58.45,1.91,1.91,0,0,1-.8.16,2,2,0,0,1-.83-.16,1.53,1.53,0,0,1-.58-.45,1.93,1.93,0,0,1-.34-.7,3.46,3.46,0,0,1-.11-.91,3.41,3.41,0,0,1,.11-.9,1.88,1.88,0,0,1,.34-.69,1.54,1.54,0,0,1,.58-.44,2,2,0,0,1,.83-.16,1.91,1.91,0,0,1,.8.16,1.58,1.58,0,0,1,.58.45,2,2,0,0,1,.35.69A3.27,3.27,0,0,1,147.22,152.85Zm-3.14,0a3.12,3.12,0,0,0,.08.72,1.56,1.56,0,0,0,.23.54,1,1,0,0,0,.4.34,1.46,1.46,0,0,0,1.15,0,1.05,1.05,0,0,0,.4-.34,1.54,1.54,0,0,0,.23-.54,3.6,3.6,0,0,0,0-1.45,1.53,1.53,0,0,0-.23-.54,1.05,1.05,0,0,0-.4-.34,1.3,1.3,0,0,0-.57-.12,1.32,1.32,0,0,0-.58.12,1.07,1.07,0,0,0-.4.34,1.54,1.54,0,0,0-.23.54A3.13,3.13,0,0,0,144.08,152.85Z" transform="translate(-5.06 -6)"/><path class="cls-4" d="M150.74,152a1.64,1.64,0,0,1-.08.51,1.1,1.1,0,0,1-.26.43,1.3,1.3,0,0,1-.49.3,2.17,2.17,0,0,1-.75.11h-.44V155h-.54v-4.28h1.06a2.38,2.38,0,0,1,.68.08,1.24,1.24,0,0,1,.47.24,1,1,0,0,1,.27.39A1.51,1.51,0,0,1,150.74,152Zm-2,.9h.38a2.15,2.15,0,0,0,.48,0,.84.84,0,0,0,.34-.15.63.63,0,0,0,.2-.27,1.06,1.06,0,0,0,.07-.4.76.76,0,0,0-.24-.62,1.16,1.16,0,0,0-.75-.2h-.47Z" transform="translate(-5.06 -6)"/><path class="cls-4" d="M153.85,155h-2.22v-4.28h2.22v.48h-1.68v1.32h1.57V153h-1.57v1.52h1.68Z" transform="translate(-5.06 -6)"/><path class="cls-4" d="M155.34,153.23V155h-.54v-4.28h1a1.81,1.81,0,0,1,1.15.3,1.11,1.11,0,0,1,.37.91,1.28,1.28,0,0,1-.07.45,1.08,1.08,0,0,1-.19.33,1.11,1.11,0,0,1-.27.23,1.84,1.84,0,0,1-.31.15l1.17,1.92H157l-1-1.77Zm0-.46h.48a1.7,1.7,0,0,0,.45-.05.79.79,0,0,0,.3-.15.59.59,0,0,0,.17-.25,1.07,1.07,0,0,0,.05-.35,1,1,0,0,0-.06-.36.59.59,0,0,0-.18-.24.81.81,0,0,0-.31-.14,2.06,2.06,0,0,0-.44,0h-.47Z" transform="translate(-5.06 -6)"/><path class="cls-4" d="M160.59,153.85a1.24,1.24,0,0,1-.1.51,1.06,1.06,0,0,1-.29.38,1.28,1.28,0,0,1-.46.24,2.15,2.15,0,0,1-.61.08,3.51,3.51,0,0,1-.61-.05,1.66,1.66,0,0,1-.47-.15v-.52l.23.09.27.08.29.06.3,0a1.11,1.11,0,0,0,.69-.18.6.6,0,0,0,.22-.5.81.81,0,0,0,0-.28.56.56,0,0,0-.15-.22,1.34,1.34,0,0,0-.29-.19l-.45-.2a2.57,2.57,0,0,1-.45-.22,1.25,1.25,0,0,1-.32-.27,1,1,0,0,1-.19-.35,1.48,1.48,0,0,1-.06-.44,1.08,1.08,0,0,1,.09-.46,1,1,0,0,1,.26-.34,1.19,1.19,0,0,1,.41-.21,1.75,1.75,0,0,1,.52-.07,2.78,2.78,0,0,1,.63.07,2.58,2.58,0,0,1,.5.17l-.2.46a2.76,2.76,0,0,0-.43-.15,2,2,0,0,0-.5-.06.84.84,0,0,0-.55.17.56.56,0,0,0-.2.45.85.85,0,0,0,0,.29.56.56,0,0,0,.15.22,1.11,1.11,0,0,0,.27.19l.41.18a4,4,0,0,1,.47.22,1.41,1.41,0,0,1,.34.25.94.94,0,0,1,.2.33A1.25,1.25,0,0,1,160.59,153.85Z" transform="translate(-5.06 -6)"/><path class="cls-4" d="M165.52,155l-.47-1.33h-1.6L163,155h-.55l1.57-4.3h.5l1.58,4.3Zm-.64-1.81-.43-1.24,0-.13-.05-.16-.05-.18,0-.19,0,.19-.05.19-.05.16,0,.13-.42,1.24Z" transform="translate(-5.06 -6)"/><path class="cls-4" d="M169.87,155h-.63l-2.11-3.54h0q0,.23,0,.45c0,.13,0,.26,0,.4s0,.26,0,.38V155h-.5v-4.28h.62l2.1,3.53h0q0-.22,0-.44c0-.06,0-.13,0-.19s0-.13,0-.2,0-.13,0-.19,0-.12,0-.17v-2.34h.51Z" transform="translate(-5.06 -6)"/><path class="cls-4" d="M174.19,152.82a2.91,2.91,0,0,1-.14,1,1.8,1.8,0,0,1-.41.68,1.68,1.68,0,0,1-.66.41,2.62,2.62,0,0,1-.88.14H171v-4.28h1.19a2.32,2.32,0,0,1,.81.13,1.63,1.63,0,0,1,.62.4,1.81,1.81,0,0,1,.39.66A2.74,2.74,0,0,1,174.19,152.82Zm-.58,0a2.5,2.5,0,0,0-.1-.74,1.33,1.33,0,0,0-.28-.51,1.12,1.12,0,0,0-.45-.3,1.78,1.78,0,0,0-.61-.1h-.59v3.35h.47a1.5,1.5,0,0,0,1.17-.43A1.82,1.82,0,0,0,173.61,152.83Z" transform="translate(-5.06 -6)"/><path class="cls-4" d="M179.2,155l-.47-1.33h-1.6l-.47,1.33h-.55l1.57-4.3h.5l1.58,4.3Zm-.64-1.81-.43-1.24,0-.13-.05-.16-.05-.18,0-.19,0,.19-.05.19-.05.16,0,.13-.42,1.24Z" transform="translate(-5.06 -6)"/><path class="cls-4" d="M180.89,153.23V155h-.54v-4.28h1a1.81,1.81,0,0,1,1.15.3,1.11,1.11,0,0,1,.37.91,1.28,1.28,0,0,1-.07.45,1.08,1.08,0,0,1-.19.33,1.11,1.11,0,0,1-.27.23,1.84,1.84,0,0,1-.31.15l1.17,1.92h-.64l-1-1.77Zm0-.46h.48a1.7,1.7,0,0,0,.45-.05.79.79,0,0,0,.3-.15.59.59,0,0,0,.17-.25,1.07,1.07,0,0,0,.05-.35,1,1,0,0,0-.06-.36.59.59,0,0,0-.18-.24.81.81,0,0,0-.31-.14,2.06,2.06,0,0,0-.44,0h-.47Z" transform="translate(-5.06 -6)"/><path class="cls-4" d="M185.62,151.14a1.35,1.35,0,0,0-.57.12,1.21,1.21,0,0,0-.43.34,1.58,1.58,0,0,0-.28.54,2.45,2.45,0,0,0-.1.72,2.82,2.82,0,0,0,.09.73,1.48,1.48,0,0,0,.26.54,1.11,1.11,0,0,0,.43.33,1.48,1.48,0,0,0,.6.11,2.25,2.25,0,0,0,.5-.05l.46-.12v.47l-.23.08-.24.05-.27,0h-.31a2,2,0,0,1-.83-.16,1.53,1.53,0,0,1-.58-.45,1.92,1.92,0,0,1-.34-.7,3.42,3.42,0,0,1-.11-.9,2.92,2.92,0,0,1,.13-.89,1.93,1.93,0,0,1,.38-.69,1.68,1.68,0,0,1,.61-.45,2.07,2.07,0,0,1,.84-.16,2.75,2.75,0,0,1,.6.06,2.06,2.06,0,0,1,.52.19l-.23.46a2.57,2.57,0,0,0-.4-.16A1.66,1.66,0,0,0,185.62,151.14Z" transform="translate(-5.06 -6)"/><path class="cls-4" d="M190.54,155H190v-2h-2v2h-.54v-4.28H188v1.8h2v-1.8h.54Z" transform="translate(-5.06 -6)"/><path class="cls-4" d="M192.92,155h-1.55v-.3l.5-.12v-3.45l-.5-.12v-.3h1.55v.3l-.5.12v3.45l.5.12Z" transform="translate(-5.06 -6)"/><path class="cls-4" d="M195,155h-.55v-3.8h-1.22v-.48h3v.48H195Z" transform="translate(-5.06 -6)"/><path class="cls-4" d="M199.08,155h-2.22v-4.28h2.22v.48H197.4v1.32H199V153H197.4v1.52h1.68Z" transform="translate(-5.06 -6)"/><path class="cls-4" d="M201.76,151.14a1.35,1.35,0,0,0-.57.12,1.21,1.21,0,0,0-.43.34,1.58,1.58,0,0,0-.28.54,2.45,2.45,0,0,0-.1.72,2.82,2.82,0,0,0,.09.73,1.48,1.48,0,0,0,.26.54,1.11,1.11,0,0,0,.43.33,1.48,1.48,0,0,0,.6.11,2.25,2.25,0,0,0,.5-.05l.46-.12v.47l-.23.08-.24.05-.27,0h-.31a2,2,0,0,1-.83-.16,1.53,1.53,0,0,1-.58-.45,1.92,1.92,0,0,1-.34-.7,3.42,3.42,0,0,1-.11-.9,2.92,2.92,0,0,1,.13-.89,1.93,1.93,0,0,1,.38-.69,1.68,1.68,0,0,1,.61-.45,2.07,2.07,0,0,1,.84-.16,2.75,2.75,0,0,1,.6.06,2.06,2.06,0,0,1,.52.19l-.23.46a2.57,2.57,0,0,0-.4-.16A1.66,1.66,0,0,0,201.76,151.14Z" transform="translate(-5.06 -6)"/><path class="cls-4" d="M204.89,155h-.55v-3.8h-1.22v-.48h3v.48h-1.22Z" transform="translate(-5.06 -6)"/><path class="cls-4" d="M209,153.85a1.24,1.24,0,0,1-.1.51,1.06,1.06,0,0,1-.29.38,1.28,1.28,0,0,1-.46.24,2.15,2.15,0,0,1-.61.08,3.51,3.51,0,0,1-.61-.05,1.66,1.66,0,0,1-.47-.15v-.52l.23.09.27.08.29.06.3,0a1.11,1.11,0,0,0,.69-.18.6.6,0,0,0,.22-.5.81.81,0,0,0,0-.28.56.56,0,0,0-.15-.22,1.34,1.34,0,0,0-.29-.19l-.45-.2a2.57,2.57,0,0,1-.45-.22,1.25,1.25,0,0,1-.32-.27,1,1,0,0,1-.19-.35,1.48,1.48,0,0,1-.06-.44,1.08,1.08,0,0,1,.09-.46,1,1,0,0,1,.26-.34,1.19,1.19,0,0,1,.41-.21,1.75,1.75,0,0,1,.52-.07,2.78,2.78,0,0,1,.63.07,2.58,2.58,0,0,1,.5.17l-.2.46a2.76,2.76,0,0,0-.43-.15,2,2,0,0,0-.5-.06.84.84,0,0,0-.55.17.56.56,0,0,0-.2.45.85.85,0,0,0,0,.29.56.56,0,0,0,.15.22,1.11,1.11,0,0,0,.27.19l.41.18a4,4,0,0,1,.47.22,1.41,1.41,0,0,1,.34.25.94.94,0,0,1,.2.33A1.25,1.25,0,0,1,209,153.85Z" transform="translate(-5.06 -6)"/></g><g id="Layer_1" data-name="Layer 1"><polygon class="cls-1" points="21.42 137.86 0.33 137.86 0.33 116.28 4.77 116.28 4.77 133.42 16.98 133.42 16.98 116.28 21.42 116.28 21.42 137.86"/><polygon class="cls-1" points="125.25 137.86 104.17 137.86 104.17 116.28 125.25 116.28 125.25 120.72 108.61 120.72 108.61 133.42 125.25 133.42 125.25 137.86"/><polygon class="cls-1" points="82.83 137.86 78.39 137.86 78.39 116.28 99.97 116.28 99.97 120.72 82.83 120.72 82.83 137.86"/><path class="cls-1" d="M52.74,143.86H30.91V122.28h4.44v8.8L52.74,131Zm-17.39-4.44H48.3v-4l-12.95.09Z" transform="translate(-5.06 -6)"/><polygon class="cls-1" points="186.91 137.86 182.47 137.86 182.47 116.28 204.06 116.28 204.06 120.72 186.91 120.72 186.91 137.86"/><rect class="cls-1" x="184.69" y="125.16" width="19.36" height="4.44"/><rect class="cls-1" x="52.52" y="116.28" width="21.01" height="4.44"/><rect class="cls-5" x="5.41" y="110.85" width="4.23" height="4.44"/><rect class="cls-5" x="11.86" y="110.85" width="4.23" height="4.44"/><rect class="cls-1" x="52.52" y="124.97" width="21.01" height="4.44"/><rect class="cls-1" x="52.52" y="133.42" width="21.01" height="4.44"/><polygon class="cls-1" points="177.79 137.86 173.35 137.86 173.35 120.72 161.14 120.72 161.14 137.86 156.7 137.86 156.7 116.28 177.79 116.28 177.79 137.86"/><path class="cls-1" d="M157.07,143.86H136V122.28h21.09Zm-16.65-4.44h12.21v-12.7H140.42Z" transform="translate(-5.06 -6)"/><path class="cls-1" d="M136.22,26.77a15,15,0,0,0-10.17,1c-5.22,2.54-10.17,8.75-10.31,11.3s-1.83,6-1.48,11.12,5.29,18.1,8.12,21.63,9.46,7.48,14.4,5.22c0,0,9.32,2.26,14-4.66s7.77-13,7.48-20.61S155.7,36.51,151.61,32,141.08,24.79,136.22,26.77Z" transform="translate(-5.06 -6)"/><path class="cls-6" d="M160.53,59.72a87.49,87.49,0,0,1,3,8.62c6.15,21.84.75,33-16,23.24A58.48,58.48,0,0,1,136,82.42h0c-9.89-9.86-18.93-24.2-24.2-37.94a74.44,74.44,0,0,1-4.39-16.4c-2.62-19.76,6.94-23,22-11.78a67.55,67.55,0,0,1,8.31,7.48,5.17,5.17,0,0,1,2.1-.48h0A80,80,0,0,0,128.6,12.84C112,.32,99.33,5,102,26.86c1.1,9.06,4.53,19.24,9.41,29.15,0,0,0,0,0,0l.1.2c.41.83.83,1.67,1.26,2.49l.14.28,0,0a128.54,128.54,0,0,0,15,22.55l0,0,.48.55c.25.3.5.61.75.9h0c5.76,6.64,11.95,12.14,18.08,15.63,18.75,10.68,26.21-3.85,19.16-28.31a102.65,102.65,0,0,0-4.8-13Z" transform="translate(-5.06 -6)"/><path class="cls-7" d="M111.14,57.23a103.15,103.15,0,0,0-4.8,13c-7.05,24.46.41,39,19.16,28.31,6.37-3.62,12.79-9.4,18.73-16.38.09-.05.09-.08.09-.08l.33-.4.14-.17h0a129.11,129.11,0,0,0,16.12-24.69h0v0l.26-.5v0c5-10,8.44-20.31,9.55-29.46,2.65-21.87-10-26.54-26.62-14a81.4,81.4,0,0,0-11.86,11.23l.23,0a4.66,4.66,0,0,1,2.57-.34,67.52,67.52,0,0,1,8.3-7.47c15-11.19,24.57-8,22,11.78a74.51,74.51,0,0,1-4.4,16.45v0c-5.21,13.66-14.13,27.72-24,37.6h0a58.92,58.92,0,0,1-11.77,9.42c-16.72,9.73-22.12-1.41-16-23.24a86.23,86.23,0,0,1,3-8.79Z" transform="translate(-5.06 -6)"/><path class="cls-8" d="M168.43,34.8a100.93,100.93,0,0,0-11.69-1.93,6.69,6.69,0,0,1,.79,2l0,0c2.69.38,5.31.86,7.81,1.46,22.08,5.24,29.18,15.38,12.55,25.25-5.5,3.27-12.62,5.7-20.44,7.28v0a114.32,114.32,0,0,1-41.81.44,69.88,69.88,0,0,1-12.73-3.54c-18.54-7.32-16.7-17.23.38-24.91A66.18,66.18,0,0,1,113,37.5a6.79,6.79,0,0,1,1.19-1.68,5.34,5.34,0,0,0,.45-.51l.13-.19a80.34,80.34,0,0,0-14.85,4.74c-19,8.46-21.09,21.76-.69,30.08a82.71,82.71,0,0,0,19.36,4.94l0,0,.66.08.39.06v0A129.74,129.74,0,0,0,154,74.82l0,0c11.49-1.63,22.11-4.8,29.83-9.49C202.3,54.11,193.23,40.53,168.43,34.8Z" transform="translate(-5.06 -6)"/><path class="cls-9" d="M135,21.08q.69.66,1.38,1.35.69-.69,1.38-1.35l-1.38-1.42Q135.65,20.36,135,21.08Z" transform="translate(-5.06 -6)"/><path class="cls-9" d="M136.34,82.74c-1.34,1.32-2.69,2.56-4,3.71q2,2.1,4,4,2-1.89,4-4C139,85.3,137.68,84.06,136.34,82.74Z" transform="translate(-5.06 -6)"/><g class="cls-10"><path class="cls-11" d="M131,67.72a2.3,2.3,0,0,0,.55-.58c.21-.34,1.2.15,1.5-.47a1.07,1.07,0,0,1-1.2-.24c-.51-.56,0-1.07-1.22-2.05A3.3,3.3,0,0,1,131,67.72Z" transform="translate(-5.06 -6)"/><path class="cls-11" d="M121.38,47.38a1.9,1.9,0,0,1-1.92.36c.44.69,1.57.35,1.57.35a3.22,3.22,0,0,1-1.88,2.66c1.87-.35,2-1.19,2.48-2.38a5.36,5.36,0,0,1,3.52-2.71,2.54,2.54,0,0,0,1.49-.41A5.68,5.68,0,0,0,121.38,47.38Z" transform="translate(-5.06 -6)"/><path class="cls-11" d="M134.13,74.94c.06-1.06-.66-1-.66-1.68s1.06-.36,1.32-1.27-1.15-1.25-1.15-1.25.75.36.7,1-1.25.28-1.31,1.31.57,1.08.49,1.68c-.09.81-1.72.93-2.78.87a3,3,0,0,0,2.71,0,1.43,1.43,0,0,0,2.12,0C134.75,76.1,134.07,76,134.13,74.94Z" transform="translate(-5.06 -6)"/><path class="cls-11" d="M141.67,32.61c.46.93-.66,1.75-1.3,2a2.24,2.24,0,0,0,1.6-.84,2.25,2.25,0,0,0,1.67.33c-2.07-.5-1.12-.88-1.6-1.87s-1.59-.58-1.93-1.11.46-1.42.46-1.42-1.45.58-1.16,1.62S141.2,31.69,141.67,32.61Z" transform="translate(-5.06 -6)"/><path class="cls-11" d="M141.24,36.49a1.31,1.31,0,0,1,1.48-.33,4.51,4.51,0,0,0,4.08.25,3,3,0,0,1,3.17.33.92.92,0,0,0-.13-.4s.94-.38,1.64,1.37c.26.71.82.4,1-.17a2.63,2.63,0,0,0-.2-1.49s.25,1.14-.26,1.34c-.22.1-.78-1.55-2.53-1.75s-2.73.76-3.93.56c.41-.41.22-.73.22-.73s-.46,1.34-2.48.55A1.58,1.58,0,0,0,141.24,36.49Z" transform="translate(-5.06 -6)"/><path class="cls-11" d="M117.46,40.81c.57,1,1.29,1,2.23.42,1.29,1,2.82-.72,3.67-1.54a2.92,2.92,0,0,0,3.49-.42s-2,.62-3,0-.45-2.43-.45-2.43-1.46,2.5-3,1.83.62-2.95.62-2.95a6,6,0,0,0-2.31,1.76.8.8,0,0,1-1,.15l.32.57a1.25,1.25,0,0,0,0,1.44c-.25-1.11,1.31-1.81,1.31-1.81a1.42,1.42,0,0,0,.84,1.24c.89.5,2.28-.54,2.28-.54l.52.92c-1.71,2.28-3.07,1.39-3.07,1.39a1.34,1.34,0,0,0-.45-1.06,1.2,1.2,0,0,1-.22,1.31C118.58,41.73,117.46,40.81,117.46,40.81Z" transform="translate(-5.06 -6)"/><path class="cls-11" d="M151.43,62.12a3.38,3.38,0,0,1,1.09,2.21s0-1.19.52-1.54a1.82,1.82,0,0,0,1-1.78S153.83,63,151.43,62.12Z" transform="translate(-5.06 -6)"/><path class="cls-11" d="M148.58,60.43c-.25-.77-.57-1.24-.94-1.29a1.08,1.08,0,0,1,.27,1.26,1.64,1.64,0,0,0,.47,2.08s-.67-.74-.1-1.09.84.2,1.56,0C149.84,61.42,148.82,61.2,148.58,60.43Z" transform="translate(-5.06 -6)"/><path class="cls-11" d="M152.8,50.09a2.62,2.62,0,0,1-.15-1.49,1.52,1.52,0,0,0-.46-1.6s.5.92-.2,1.29-.59-.31-2.54,0A4,4,0,0,1,152.8,50.09Z" transform="translate(-5.06 -6)"/><path class="cls-11" d="M158.43,47.63a5.26,5.26,0,0,0-.59-3.91,7,7,0,0,0-.69-3.76,7.76,7.76,0,0,0-1-2.18A5.4,5.4,0,0,0,155,35.47,5,5,0,0,0,152.65,32a4.09,4.09,0,0,0-2.47-2,5.6,5.6,0,0,0-3.35-2.32h0a7.77,7.77,0,0,0-5.62-2.3h-.09l-.39-.06a8.29,8.29,0,0,0-1.52-.16,4.5,4.5,0,0,0-2.68.83,4.63,4.63,0,0,0-3.82-.11,4.12,4.12,0,0,0-3.19.3,11.32,11.32,0,0,0-6,2.86,10.09,10.09,0,0,0-4.31,3.68A21.15,21.15,0,0,0,117,35.56l-.22.32a4.74,4.74,0,0,1-.4.45,5.07,5.07,0,0,0-1.27,1.9,7.44,7.44,0,0,0-.21,2.15,7.49,7.49,0,0,1-.21,2.18,14.25,14.25,0,0,0-.45,4.42v.19a3.1,3.1,0,0,1-.08.39,4.12,4.12,0,0,0,.07,2.62,6.34,6.34,0,0,1,.54,3.19,4.11,4.11,0,0,0,.32,3.23,8.06,8.06,0,0,1,.74,2.94c.24,2,.51,3.65,1.46,4.48.37.32.42.59.53,1.19,0,.12,0,.25.07.38a4.11,4.11,0,0,0,1.71,2.88,9.18,9.18,0,0,0,4.28,4.87,6.72,6.72,0,0,0,3.46,2.75,2,2,0,0,1,.89.58,4.38,4.38,0,0,0,2.28,1.24A6.34,6.34,0,0,0,133,78a6.55,6.55,0,0,0,1.1.09,4.63,4.63,0,0,0,2.4-.6,5.21,5.21,0,0,0,2,.41,4.45,4.45,0,0,0,1.87-.41,5.93,5.93,0,0,0,4.24-1.09,2.58,2.58,0,0,0,.9-.38,4.71,4.71,0,0,0,3.8-2.38l0,0a6.91,6.91,0,0,1,1.35-1.84l.2-.17a5,5,0,0,0,1.69-2,6,6,0,0,0,1.47-2.71,2.11,2.11,0,0,1,.22-.28c.65-.75,1.74-2,2.29-6.47a6.25,6.25,0,0,0,1.16-3.55,7.3,7.3,0,0,0,.17-3.11,1.63,1.63,0,0,1,.13-.77,5.31,5.31,0,0,0,.27-1.94A3.86,3.86,0,0,0,158.43,47.63Zm-2.52-6.78a4,4,0,0,0,.41,1.16,1.69,1.69,0,0,1,.05,1.22,4.58,4.58,0,0,1-1.16-.45,4.89,4.89,0,0,0-.08-1.06s-.15.58-.53.5a6.32,6.32,0,0,0-2-1.21,6.36,6.36,0,0,1,1-.48c.23,0,.74.91,1.5.86S155.9,40.85,155.9,40.85Zm-8.29-11.43a2.88,2.88,0,0,1,1.67,2.1c.25,1.4-.23.26-.46-.2a3.9,3.9,0,0,0-2.56-1.63,1.93,1.93,0,0,0,0-.58A1.89,1.89,0,0,1,147.61,29.42ZM147,30.85c.06.69-.07,1.62.48,1.52s-.2-1.12.38-1.27c.81-.16.84,1.4,1.39,1.47s.64-1,1-.93.13.88.13.88a.5.5,0,0,1,.63,0c.45.33,0,2.08,0,2.08s-.35-.26-.61-.51a7.7,7.7,0,0,0-.17-1.39s-.25,1.12-1.14,1.12a.76.76,0,0,1-.79-.87,2,2,0,0,1-.94.4c-.65-.36-1.39-.35-1.9-.76s-.43-1.45-.43-1.45c-.4.28-.56-.18-.93-.46s-.27-.53.26-.31A1.38,1.38,0,0,0,146,30.2C146.52,29.74,147,30.15,147,30.85Zm-10.29.84c.15-2,1.73-2.11,2.18-2.74a2.46,2.46,0,0,1,1.69-1,3.14,3.14,0,0,0-2,.51c-.89.66-1.32.94-1.6.13s.79-1.65,1.75-1.95a6.91,6.91,0,0,1,2.33,0c.76,0,1.57.13,1.75.61s-.48.78-.69,1.22c0,0,1.5-1,2.63-.38s1,1.93-.38,1.83-1.77-.45-2.71-.45c0,0,1.44.45,1.78,1s1.6,1.39,1.64,2.41c0,0-.84.66-.53.73s1.12-.38,1.87-.26,1.35,1.21,3.45.83a2.71,2.71,0,0,1,1.55,1.37c.1.18.25.21.25-.51s0-1.29.36-1.34,1.67,1.87,1.17,2.43c.44.18.68.45,1.06,1.16a4.55,4.55,0,0,1,.15,2.1c0,.4.61-.26.61-.26a1.72,1.72,0,0,1,.5.78c.15.5.23,1.75-1,.81-.43-.35-.56-.58-.46-.91s-.22-.23-.43.13-1.7,1.65-3.22-.4c0,0,.64-.07.84-.45a3.47,3.47,0,0,1-1.7-.31c-.73-.4-2-.18-3.55,0s-3.57,1.17-5.05-.6a3.74,3.74,0,0,1,.48,1.78c-.07.83,0,.83,0,.83s0-.56,1.21-.93,1.31-.06.83.61a4.66,4.66,0,0,0,1.24-.68c.63-.48,1.39-1,2.15-.61a2.53,2.53,0,0,0,1.31.36s-.4-.3-.45-.45a3.18,3.18,0,0,1,2.23.92,4.48,4.48,0,0,0,1.48,1,8.94,8.94,0,0,0-3,.58c-.43.18-.94.17-1.14-.35a.93.93,0,0,0-.38.46c-.15.35-.63.78-1.68,1.06.08-.58.1-.73.1-.73s-.81,2.21-2.49,2.13-1.72-1.39-1.72-1.39a2.22,2.22,0,0,0,.46-.54,2.94,2.94,0,0,1-3.78-.07c-1.82-1.65.84-5.15.84-5.15s-1.26,1.19-1.95,0,1.93-3.47,1.93-3.47A1.83,1.83,0,0,1,136.73,31.69Zm-10.42-2.76c1.11-.81,3.14-1.58,3.42-1.4s-.66,1-.66,1a4,4,0,0,0-3.09,2s1.67-1.6,2.77-1.42c.48.15.69.69.48,1.93-.13.48.21.66.13,1.14s-.79,1.17-1,1.59a7.06,7.06,0,0,1,3-1.95,5.9,5.9,0,0,1,2.53-.1,1.78,1.78,0,0,0-.68-.38,1.92,1.92,0,0,0,.17-1.58c-.31-.84-.5-1.09.26-1.09a1,1,0,0,0,1.07-1,1.36,1.36,0,0,1-1.35.68l.27-.33a1.3,1.3,0,0,0-.86,1.59c.3,1.22.13,1.19-.21,1.32s-.61-.5-1.67.23-1.47.64-1.39-.36a4.57,4.57,0,0,0-.13-2.08,3.23,3.23,0,0,0,1.09-1.24c.59-.08,1.52-.3,1.8-.08s-.63.48-.94.84-.41.86,0,.5a1.85,1.85,0,0,1,1-.6c.41-.1.94-.83,1.37-.92a5.5,5.5,0,0,1,2.39,0,8.42,8.42,0,0,0,.38,1.82c.13.36.46,1.22-1.17,1.3-.23,0,0,.23.33.31s.66.23.59.66,0,.94-.45.86-1.29-.08-.73.15,2.16.91,1.73,2.06c-.25.63-.63,1-.73,1.4a6.39,6.39,0,0,0-5.17.12,2.55,2.55,0,0,0-1.09-.56s1.52,1-.27,2.16a2.69,2.69,0,0,1-2.49.33,1,1,0,0,0,.78.45,2,2,0,0,1-1.49-.1c-.54-.4-.48-1.62,1.55-4.16l-1.32,1.26c-.15.15-.87.74-1.34.2s.63-2.76,1.95-4.24c0,0-2.41,1.87-3,1S125.2,29.74,126.31,28.93Zm-2.87,1.73c.81-.53.18.76.1,1.24s-.23.86-.66.87-2.2.46-2.2.46A15.09,15.09,0,0,1,123.43,30.66Zm-6.78,23.18c1.1-1.22,2.94-2.11,2.89.83a4.1,4.1,0,0,0,.6-1.2c.21-.69.37-1.08,1.4-.8s2,.28,2.76-2.94a2.47,2.47,0,0,0,.67.87,2.67,2.67,0,0,1,.37-2.32c.8-.9,2-1.1,3.91-1.56s2.32-1.7,4.3-.44a3.13,3.13,0,0,0-.87-.85,1.35,1.35,0,0,0,.27-1.61s-.14,1.63-3.72,2.5S124.37,47.5,123.5,50c-.23.8-.3,3.28-2.48,1.93l0-.73a1.32,1.32,0,0,1-1.49,1.1c-1.36-.07-1-.71-1-.71a11.55,11.55,0,0,0-1.75,1.56,4.74,4.74,0,0,0-.6-2.46,2.4,2.4,0,0,1-.46-1.77,1.72,1.72,0,0,0,.8.51c.41.07,1.65-.14,1.38,1.49a1.31,1.31,0,0,0,.67-1,3,3,0,0,1,.55-1.88s-.67.32-1.1.6a1.42,1.42,0,0,1-2-.74c-.62-1.13-.23-3.4.11-4.39a5,5,0,0,0,.3-2.89,3.65,3.65,0,0,1,.83-2.9c.55-.6,1.72-2.53,2.25-3.08s1.33-1.17,3.54-1.47a2,2,0,0,0-.51,1.86,2.29,2.29,0,0,1,2.07-2c.53,0,.28.6,0,1.15a1.57,1.57,0,0,0,.44,2.11c.94.64.11,1.68-.55,2.11,0,0,.76-.09,1-.48,0,0,.6,1.93,3.88.51a3.6,3.6,0,0,0,1.66-1.68c.57-.44,3.45-1.93,4.76,0s-.78,3.24-1.61,3.61-2.11.83-3-.57a4.11,4.11,0,0,1-2.73,3.56c-2.78,1.24-5.12-.3-5-1.88a2.23,2.23,0,0,0-.23,1.63,11.07,11.07,0,0,0-3.72,1.49c-.6.44-2.16.85-2-1.75,0,0-.76,1.82.69,2.57a2.91,2.91,0,0,0,.51,2.18,2.2,2.2,0,0,1,1.29-2.87c2.09-1,3-1.45,5-.85A5,5,0,0,0,130.9,42c.32-.48.44-.87,1.7-.94a7.18,7.18,0,0,0,3.24-1.13c.71-.46.74,0,.74.64s.83,3.42-.48,4.07a3.9,3.9,0,0,1-1.31-.28A2.66,2.66,0,0,1,136,46.7a2.91,2.91,0,0,1-2.48,2.57c-.71.07-1.29,0-1.75.53-.64-.37-2-.92-3.81.73-1.31,1.15-1.68,2.8-3,2.57a2.39,2.39,0,0,1,.76.8c.3.53.46,1.17-.41,1.31a1,1,0,0,0-.37-.92s0,1.31-1.65,1S121.46,54,121.46,54a1.19,1.19,0,0,0-.09.48c0,.21,0,.34-.46.57a3.5,3.5,0,0,0-1.72,2A1.64,1.64,0,0,1,118,55.8a1.67,1.67,0,0,0-1.17-1.22,1.6,1.6,0,0,1,.83,1.45,1.14,1.14,0,0,0-1,.25A1.83,1.83,0,0,1,116.66,53.84Zm2.3,9.76c1.12,0,.92-1.77.92-1.77,3.38.57,3.47-1.79,3.47-1.79a1.74,1.74,0,0,0,2-.94,3.82,3.82,0,0,0,1.61.39,4.26,4.26,0,0,1-2.69-2.18,3.36,3.36,0,0,0,.78,1.54c-1.52,1.91-2.8-.48-2.8-.48-.21.6,1.15,2-.28,2.83a2.08,2.08,0,0,1-2.48-.44,1.09,1.09,0,0,0-1-.41c1,.85,1,2.25.51,2.53s-1.49-1-1.77-2.67-.48-3.08,0-3.31.67,0,1.24.67a10.17,10.17,0,0,0,1.4,1.24c-.3-3.86,2.23-3.31,3-3.12,2.27.51,3.4-.18,3.79-.62.69,0,1.63.21,1.63.44a3.85,3.85,0,0,1-.44,1.22,2,2,0,0,0,.41,2.67,3.07,3.07,0,0,0,.23,2.09.7.7,0,0,1-.09.8,1.67,1.67,0,0,1-2.23.32,3.32,3.32,0,0,0-2.53-.07c-.28.07-.51-.25-.51-.25a2.23,2.23,0,0,1,0,2.32c-.78,1.13-2-.14-2-.14a1.52,1.52,0,0,0,.3.78s.12.83-.32,1.17C119.55,67.72,119,63.61,119,63.61Zm5.51,8.28c-2.31-.89-3.15-2.86-3.81-4.57,1.46-.62,1.58-1.59,1.58-1.59,1.35-.25,1.84-1.86,1.84-2.58A1,1,0,0,1,125.4,63a6.36,6.36,0,0,0-.27,3.59l-.71.69a2,2,0,0,0-1.71,1,2.89,2.89,0,0,1-1.33-.36,1.79,1.79,0,0,0,1.29.78l.13.95a3,3,0,0,1,.84-1.53,2,2,0,0,1,1.73-.22,1.16,1.16,0,0,0-.27-.53c.67-1.4,1.49-1.58,1.49-1.58a1.21,1.21,0,0,0-1,.33,3,3,0,0,1,.36-2.95,2.51,2.51,0,0,0,2.79-.76,1.19,1.19,0,0,1-.44,1.82,1,1,0,0,0-.46,1.57,1.84,1.84,0,0,0,.86,2.42c0,.35-.44.62-.78.67a1.36,1.36,0,0,0-1.28,1.57C124.52,70.12,124.47,71.89,124.47,71.89Zm3,2.79c-.87-.34-3.12-1.92-2.14-3.08a1.32,1.32,0,0,1,1.88.09,1.69,1.69,0,0,1,.79,1.84,2.18,2.18,0,0,0,.41-.66,1.24,1.24,0,0,0,1.43-.71,1.26,1.26,0,0,1-2-.7c-.71-1.63-.36-2,.49-2.24s2.09-1,1.41-3.16c0,0-.11,2.63-1.34,1a1.23,1.23,0,0,1,1.49-1.69,1.5,1.5,0,0,0-1.67.11s-.36-.6.62-1.09.66-1.77.66-1.77a2.22,2.22,0,0,1,2-.41c1.15.34,1.45.75,1.37,1.37s-.53,1.17.49,1.94.73,2.22-.81,1.88a1.46,1.46,0,0,1,.08,1.88c-.75,1-2,.53-2.6,1.16,0,0,.92.17,1.17.77s-.21.9-.64,1.67a2.76,2.76,0,0,0-.53,1.41c0,.36-.41.49-.88.39S128.31,75,127.45,74.67Zm9.39-10.93c0,.72-.25,1.3-.25,2.27a6.28,6.28,0,0,1-.15,2.42c-.28.53-1,.43-1.29.47a4.46,4.46,0,0,1,1.21,2.71,4,4,0,0,0,.36,2.21,3.21,3.21,0,0,0-.15,2,3.11,3.11,0,0,1-3.39.68c-3,.89-3.75-1-3.93-1.44a3.6,3.6,0,0,0,1.27-.36c1.48.93,2.08-.23,2.08-.23a1.6,1.6,0,0,1-1.49.06c-.68-.42-.06-1.7.42-2.5a3.69,3.69,0,0,1,1.59-1.57,1.55,1.55,0,0,0,1-1.06A2.42,2.42,0,0,1,133,70a5.45,5.45,0,0,0,.74-1.8,1.64,1.64,0,0,0,.93-.74c.59-1-.42-1.7-1.12-2.23s-.15-1.55-.15-1.55a2.35,2.35,0,0,1,.68.79A4.56,4.56,0,0,0,132.69,62c-1.13-.93-2-.32-3.14-.43s-.68-1.51-.57-1.95a2,2,0,0,0,1.42,0,2.4,2.4,0,0,1,1.74,0c.47.26.74.23.55,0a2.4,2.4,0,0,0-2.1-.45c-.45.08-2.08.38-2.37-1.15s1.42-2.88,2.18-3.31,1.23-.64.49-.57a9.59,9.59,0,0,0-2,.64l-.36-.26c.19-.32-.11-1.08-.28-.87s.15.3-.28.78a.94.94,0,0,1-1.12,0c-.81-.91.57-2.8,1.44-3.61s2.29-1.25,2.69-.89-.25.79-.7,1.17-1.55,1.15-.21.76,1.27-1.42,2.86-2.1a1.32,1.32,0,0,1,1.95.91,1.36,1.36,0,0,0-.45-1.1c.11-.42.95-.66,1.31-.78s.87.55.87,2.12-.83,1.83-1.89,2c1.66.38,1.74,1.1,1.85,1.82s0,1.95-.47,2.23-1.12-.85-2.44-1.44a2.63,2.63,0,0,0-2.44.19,3.25,3.25,0,0,1,2-.08,5.93,5.93,0,0,1,3,3,1.37,1.37,0,0,1-.79,1.55C137.11,60.6,136.85,63,136.83,63.75Zm12,8.44a9.63,9.63,0,0,1-2.87,2.53c-.63.2-.08-.91-.08-.91.64.2,1.22-.63,1.22-.63s-1.42,1-2.18-1.57A3.08,3.08,0,0,1,146,68.12a2.38,2.38,0,0,0-.73.25c-.33-1.62,1.4-2.53,1.4-2.53l-.45,0a3.07,3.07,0,0,0,0-.81,4.18,4.18,0,0,0,2-.4c.71-.23,1.07-.23,1.29,1a1.17,1.17,0,0,1-1,1.44.88.88,0,0,1,.36,1c-.15.71-1.09.78-1.09.78,1.3.61.38,1.92-.08,2.36s-.36.87.5.3S149.2,71.49,148.79,72.19Zm3.3-27.25a4.88,4.88,0,0,0-3.12.25c-1.58.64-3.15,2.3-5,2.48a4.17,4.17,0,0,1-3.58-1.54,1.92,1.92,0,0,0-1-.94,1.42,1.42,0,0,1-.08,2.1,2.15,2.15,0,0,1,1.65,0c1,.38,3,1.4,5.29,0s4-2.89,5.35-1.44c0,0,0-1,1-.31s2,1.72,2.53,2.1a1.63,1.63,0,0,0,1.45.38s-.25,1.14-1.26,1.16a1.32,1.32,0,0,0,1.5-.73,1.3,1.3,0,0,1-.12,1.6c-.68.89-1.34,0-2.36.45s-1.4,1.34-2.76.21-2.81-2.28-4.28-.87c0,0,1.8-1.26,4.38,1.52a.82.82,0,0,1-.53.23,4.36,4.36,0,0,0,1.22.13A2,2,0,0,1,154,53.27s0-.71-.07-1.19a1.12,1.12,0,0,1,1.22-1.14,1.9,1.9,0,0,0,1.22-.17c.21,0,.55.25.55.91a1.55,1.55,0,0,1-.41,1.06,4.15,4.15,0,0,0-.56-.71s.5,1.06-.79,2.72-2.89,2.33-3.38.76-1.47-2.79-4.53-3.06c-.88-.08-2.46,0-1.24-2.2,0,0-.46.23-.69,0a2.48,2.48,0,0,0-1.09-.69s1.72,1,.56,4.29a4.88,4.88,0,0,1,4.38-.61c2.59.83,2.33,2.69,1.75,2.69a2.87,2.87,0,0,0,2,.92,3.68,3.68,0,0,0,2.49-1.77c.61-.84.69-1,1-.94s.38.83-.05,1.54-.71,1-.74,1.49a1.69,1.69,0,0,1,.78-.68,4.42,4.42,0,0,1-1.72,3.4s.73-.17.65.43-.69,5.78-2.81,4.79a3.79,3.79,0,0,1-.23,2.44c-.22.6-.65.58-.33-1.24a5.13,5.13,0,0,0-.65,1.72,2.93,2.93,0,0,1-1.44,2.2c-.74.36-.86-.12-.78-.59a2.46,2.46,0,0,0,.41-2.1c.53-.38.94-1.07.53-2.64-.1-.46-.23-.76.23-1a1,1,0,0,1-1.06-.61,2.38,2.38,0,0,1-1.52,1.32c-1.17.36-2.3.36-2.89-1.4a7.78,7.78,0,0,1,.46-5,2.56,2.56,0,0,1,2.56-1.85c.69,0,1.34,1,1.93,2,0,0,1.34,2,3,2a3.16,3.16,0,0,0,2.46-1.67,4,4,0,0,1-2.63,1.42c-1.37,0-1.9-1.67-2-2.3l-.07.91a9.73,9.73,0,0,1-1-1.34,2.47,2.47,0,0,0-3.3-1.34,3.13,3.13,0,0,1-3.39-.69,3.19,3.19,0,0,0,1.09,1.54c.79.54.34,2.41.34,2.41s-.74-1.12-1.6-1.19A2.91,2.91,0,0,1,144,60.77a5.14,5.14,0,0,1-1.87,3.95,5.24,5.24,0,0,0-1.72,4.92,1.31,1.31,0,0,0-1-.46,3.81,3.81,0,0,1,1.64,3,4.71,4.71,0,0,1-1,3.58,1.76,1.76,0,0,0,1.06-.64,1.12,1.12,0,0,0,1.47-.38s-1.29.76-1.16-.76a12.57,12.57,0,0,0-.21-3.42,3.07,3.07,0,0,1,1.07-2.94,4.85,4.85,0,0,0-1.3,1.11s-.71-2.36,2.51-4.18c0,0-.46,0-.79.07,0,0,.63-1,1.29-1.07s.78.56,1.27.91a1.32,1.32,0,0,1,.33,2,2.62,2.62,0,0,0-.68,1.35,2.77,2.77,0,0,0-.89-.51,2.14,2.14,0,0,1,.74,1.42c-.05.73-.74,1.83-.35,3a3.56,3.56,0,0,0,1.11,1.72,3.63,3.63,0,0,0-.28,1.24c-.21.25-.76.33-.78-.3a4.47,4.47,0,0,0-.84.93c-.45.63-1.34,1.39-3.14.74-.91.41-2.15,1-2.94,0a1.67,1.67,0,0,1,.28-2.16,2.66,2.66,0,0,0,.68-1.75s-.2,1.19-1,1.42c0,0-.6-.5-.3-2.18s1.42-1.62,1.42-1.62a2.91,2.91,0,0,1-1.37-1.6,12.55,12.55,0,0,1,.33-4.48,3.35,3.35,0,0,0,1,.89s-1.29-1.29-1.49-4.79c0-1.17.26-3.29.23-4.46s-.63-4.56,2-4.74c.58,0,1.57.12,2.15,2.33a2.45,2.45,0,0,0,.91,1.47,4.39,4.39,0,0,1-.71-1.85c-.08-1-.87-2.78-2.61-2.48-.93.15-2.38.41-2.38-1.92s.68-4.74,1.88-4.91a3.16,3.16,0,0,0,2,0,3,3,0,0,0,2.41,1.65c.94,0,1.06-.54,2.1-.6a2.27,2.27,0,0,0,.66-.16s-1.11-.07-.26-.83a4,4,0,0,1,3.09-1.14,4.68,4.68,0,0,1,3-.61,4.75,4.75,0,0,0,1.08.86,2.92,2.92,0,0,1-.35-.78s3.35,1.25,3.33,2.48l.26-.21s1.54.69.25,2.28c0,0,.54-.13.79-1a1.91,1.91,0,0,1,0,2c-1,1.52-2.41-.73-3.48-1.88a1.35,1.35,0,0,0,.25-.46A5.25,5.25,0,0,1,152.09,44.93Z" transform="translate(-5.06 -6)"/><path class="cls-11" d="M141.34,55.16l-.4.87a5.26,5.26,0,0,0-1.14-2.43,4.48,4.48,0,0,1,.62,2.82,4,4,0,0,0-.69-.62,1.83,1.83,0,0,1,.35,1.81,5.25,5.25,0,0,0,.77,5.23,4.54,4.54,0,0,1-.22-3.47,4.32,4.32,0,0,0-.55,1,3.41,3.41,0,0,1,.45-2.58A5.77,5.77,0,0,0,141.34,55.16Z" transform="translate(-5.06 -6)"/></g><path class="cls-12" d="M109.19,68.34l.12-.43q-1-.29-2.07-.6-.48,1.48-.91,2.95-.28,1-.54,1.95,1.11.32,2.25.61Q108.54,70.66,109.19,68.34Z" transform="translate(-5.06 -6)"/><path class="cls-13" d="M146.77,70.5q-2,2.8-4.18,5.41c2.35-.12,4.7-.3,7-.54q2-2.8,4-5.75C151.34,70,149.07,70.27,146.77,70.5Z" transform="translate(-5.06 -6)"/><path class="cls-14" d="M164.19,33.94q-.24,1-.52,2l1.68.38q1.68.4,3.24.84.31-1.11.58-2.21l-.76-.18Q166.35,34.32,164.19,33.94Z" transform="translate(-5.06 -6)"/><path class="cls-15" d="M126.08,70.71c-2.28-.18-4.53-.43-6.73-.75q1.84,2.8,3.79,5.48c2.3.23,4.63.4,7,.5Q128,73.43,126.08,70.71Z" transform="translate(-5.06 -6)"/><path class="cls-16" d="M105,40.17c1.51-.62,3.09-1.19,4.75-1.72q-.29-1-.56-1.91-2.5.72-4.82,1.55Q104.64,39.13,105,40.17Z" transform="translate(-5.06 -6)"/><path class="cls-17" d="M166.35,70.26q-.48-1.65-1-3.32l-2.06.59.24.81q.65,2.3,1.13,4.44l2.26-.58Q166.63,71.24,166.35,70.26Z" transform="translate(-5.06 -6)"/><polygon class="cls-18" points="237.75 138.82 227.15 149.62 215.49 149.62 234.77 130.54 237.75 138.82"/><polygon class="cls-19" points="237.47 127.55 255.2 145.47 241.03 142.78 231.88 133.24 237.47 127.55"/><polygon class="cls-20" points="269.94 149.43 247.78 149.43 240.16 141.62 268.21 141.62 269.94 149.43"/><polygon class="cls-21" points="269.94 149.43 269.94 138.05 253.08 121.38 248.61 128.13 269.94 149.43"/><polygon class="cls-22" points="248.61 128.13 264.29 112.32 253.37 112.32 242.96 122.22 248.61 128.13"/><polygon class="cls-23" points="237.47 105.67 248.06 94.88 259.73 94.88 240.45 113.96 237.47 105.67"/><polygon class="cls-24" points="237.75 116.95 220.02 99.02 234.19 101.72 243.34 111.26 237.75 116.95"/><polygon class="cls-25" points="205.28 95.07 227.44 95.07 235.06 102.88 207.01 102.88 205.28 95.07"/><polygon class="cls-26" points="205.28 95.07 205.28 106.44 222.14 123.12 226.61 116.37 205.28 95.07"/><polygon class="cls-27" points="226.61 116.37 210.93 132.18 221.85 132.18 232.26 122.28 226.61 116.37"/></g></g></svg>